<svg width="100%" height="25" viewBox="0 0 72 25" fill="none" xmlns="http://www.w3.org/2000/svg">
<path d="M0.809659 6.95455V2.18182H19.7727V6.95455H13.2102V24H7.37216V6.95455H0.809659ZM22.002 24V2.18182H37.7264V6.95455H27.9252V10.7045H36.9167V15.4773H27.9252V19.2273H37.6838V24H22.002ZM49.0589 24H40.6641V2.18182H48.9737C51.218 2.18182 53.157 2.61861 54.7905 3.49219C56.4311 4.35866 57.6953 5.60866 58.5831 7.24219C59.478 8.86861 59.9254 10.8182 59.9254 13.0909C59.9254 15.3636 59.4815 17.3168 58.5938 18.9503C57.706 20.5767 56.4489 21.8267 54.8224 22.7003C53.196 23.5668 51.2749 24 49.0589 24ZM46.5874 18.9716H48.8459C49.9254 18.9716 50.8452 18.7976 51.6051 18.4496C52.3722 18.1016 52.9545 17.5014 53.3523 16.6491C53.7571 15.7969 53.9595 14.6108 53.9595 13.0909C53.9595 11.571 53.7536 10.3849 53.3416 9.53267C52.9368 8.6804 52.3402 8.08025 51.5518 7.73224C50.7706 7.38423 49.8118 7.21023 48.6754 7.21023H46.5874V18.9716ZM65.9132 0.909091L68.0609 4.71875H68.1632L70.3365 0.909091H74.2995L70.3876 7.45455L74.4529 14H70.3876L68.1632 10.1136H68.0609L65.8365 14H61.7967L65.8109 7.45455L61.9245 0.909091H65.9132Z" fill="#EB1B35"/>
</svg>
