<svg width="138" height="25" viewBox="0 0 138 25" fill="none" xmlns="http://www.w3.org/2000/svg">
<path d="M0.809659 6.95455V2.18182H19.7727V6.95455H13.2102V24H7.37216V6.95455H0.809659ZM22.002 24V2.18182H37.7264V6.95455H27.9252V10.7045H36.9167V15.4773H27.9252V19.2273H37.6838V24H22.002ZM49.0589 24H40.6641V2.18182H48.9737C51.218 2.18182 53.157 2.61861 54.7905 3.49219C56.4311 4.35866 57.6953 5.60866 58.5831 7.24219C59.478 8.86861 59.9254 10.8182 59.9254 13.0909C59.9254 15.3636 59.4815 17.3168 58.5938 18.9503C57.706 20.5767 56.4489 21.8267 54.8224 22.7003C53.196 23.5668 51.2749 24 49.0589 24ZM46.5874 18.9716H48.8459C49.9254 18.9716 50.8452 18.7976 51.6051 18.4496C52.3722 18.1016 52.9545 17.5014 53.3523 16.6491C53.7571 15.7969 53.9595 14.6108 53.9595 13.0909C53.9595 11.571 53.7536 10.3849 53.3416 9.53267C52.9368 8.6804 52.3402 8.08025 51.5518 7.73224C50.7706 7.38423 49.8118 7.21023 48.6754 7.21023H46.5874V18.9716ZM65.9132 0.909091L68.0609 4.71875H68.1632L70.3365 0.909091H74.2995L70.3876 7.45455L74.4529 14H70.3876L68.1632 10.1136H68.0609L65.8365 14H61.7967L65.8109 7.45455L61.9245 0.909091H65.9132Z" fill="#EB1B35"/>
<path d="M86.2137 24H82.7193L90.5709 2.18182H94.3742L102.226 24H98.7314L92.5631 6.14489H92.3926L86.2137 24ZM86.7996 15.456H98.1348V18.2259H86.7996V15.456ZM121.273 9.27699H117.949C117.821 8.56676 117.583 7.94176 117.235 7.40199C116.887 6.86222 116.461 6.40412 115.956 6.0277C115.452 5.65128 114.888 5.36719 114.263 5.17543C113.645 4.98366 112.988 4.88778 112.292 4.88778C111.035 4.88778 109.909 5.20384 108.915 5.83594C107.927 6.46804 107.146 7.39489 106.571 8.61648C106.003 9.83807 105.719 11.3295 105.719 13.0909C105.719 14.8665 106.003 16.3651 106.571 17.5866C107.146 18.8082 107.931 19.7315 108.925 20.3565C109.92 20.9815 111.038 21.294 112.281 21.294C112.97 21.294 113.623 21.2017 114.241 21.017C114.866 20.8253 115.431 20.5447 115.935 20.1754C116.439 19.8061 116.866 19.3551 117.214 18.8224C117.569 18.2827 117.814 17.6648 117.949 16.9688L121.273 16.9794C121.095 18.0518 120.751 19.0391 120.239 19.9411C119.735 20.8359 119.085 21.6101 118.29 22.2635C117.501 22.9098 116.599 23.4105 115.584 23.7656C114.568 24.1207 113.46 24.2983 112.26 24.2983C110.371 24.2983 108.687 23.8509 107.21 22.956C105.733 22.054 104.568 20.7649 103.716 19.0888C102.871 17.4126 102.448 15.4134 102.448 13.0909C102.448 10.7614 102.874 8.76207 103.726 7.09304C104.579 5.4169 105.743 4.13139 107.221 3.23651C108.698 2.33452 110.378 1.88352 112.26 1.88352C113.417 1.88352 114.497 2.05043 115.498 2.38423C116.507 2.71094 117.412 3.19389 118.215 3.8331C119.018 4.4652 119.682 5.23935 120.207 6.15554C120.733 7.06463 121.088 8.10511 121.273 9.27699ZM124.012 24V2.18182H137.691V5.01562H127.304V11.6634H136.977V14.4865H127.304V21.1662H137.818V24H124.012Z" fill="white"/>
</svg>
